<?xml version="1.0" encoding="UTF-8"?>
<!DOCTYPE svg PUBLIC "-//W3C//DTD SVG 1.1//EN" "http://www.w3.org/Graphics/SVG/1.1/DTD/svg11.dtd">
<svg xmlns="http://www.w3.org/2000/svg" version="1.1" width="512px" height="512px" style="shape-rendering:geometricPrecision; text-rendering:geometricPrecision; image-rendering:optimizeQuality; fill-rule:evenodd; clip-rule:evenodd" xmlns:xlink="http://www.w3.org/1999/xlink">
<g><path style="opacity:0.919" fill="#000000" d="M 258.5,-0.5 C 267.167,-0.5 275.833,-0.5 284.5,-0.5C 326.373,12.5241 362.206,35.1908 392,67.5C 413.663,94.4724 430.996,124.139 444,156.5C 456.14,188.003 462.474,220.67 463,254.5C 465.638,296.181 462.971,337.515 455,378.5C 451.151,397.914 446.984,417.248 442.5,436.5C 445.943,441.446 449.943,445.946 454.5,450C 462.408,454.907 468.575,461.407 473,469.5C 473.944,475.446 471.777,479.946 466.5,483C 448.751,492.375 430.418,500.375 411.5,507C 403.439,508.931 395.439,510.431 387.5,511.5C 373.833,511.5 360.167,511.5 346.5,511.5C 316.386,508.219 287.386,500.386 259.5,488C 245.653,480.32 233.153,470.82 222,459.5C 212.968,448.781 205.968,436.781 201,423.5C 197.688,412.253 194.688,400.92 192,389.5C 185.915,393.127 179.748,396.627 173.5,400C 178.786,429.235 172.953,456.068 156,480.5C 147.439,490.361 136.605,495.861 123.5,497C 100.078,499.543 78.0779,495.209 57.5,484C 41.1062,471.502 34.9395,455.002 39,434.5C 42.7863,424.927 47.1197,415.593 52,406.5C 56.448,393.034 58.948,379.201 59.5,365C 58.5923,351.496 57.5923,337.996 56.5,324.5C 55.7728,306.838 61.4395,291.671 73.5,279C 85.602,269.392 99.2687,266.226 114.5,269.5C 122.973,264.762 131.64,260.262 140.5,256C 145.655,254.323 148.655,256.156 149.5,261.5C 147.835,269.808 146.668,278.141 146,286.5C 159.306,301.716 167.639,319.382 171,339.5C 175.489,340.011 179.655,338.844 183.5,336C 179.582,315.434 182.749,295.934 193,277.5C 204.17,259.83 214.837,241.83 225,223.5C 232.884,205.396 234.55,186.729 230,167.5C 225.701,154.911 220.868,142.578 215.5,130.5C 202.795,130.157 190.129,129.324 177.5,128C 175.078,125.997 174.245,123.497 175,120.5C 182.065,106.032 190.398,92.3658 200,79.5C 197.209,62.3319 200.875,46.6652 211,32.5C 223.146,15.871 238.98,4.87103 258.5,-0.5 Z M 261.5,16.5 C 272.172,16.4587 282.505,18.292 292.5,22C 317.094,33.958 340.094,48.2913 361.5,65C 392.254,96.1308 415.42,132.297 431,173.5C 439.914,202.133 444.914,231.467 446,261.5C 447.32,289.924 446.32,318.258 443,346.5C 438.139,376.469 432.639,406.302 426.5,436C 426.156,441.97 427.989,447.136 432,451.5C 438.185,458.349 445.018,464.516 452.5,470C 420.145,489.406 385.145,497.072 347.5,493C 336.734,491.983 326.067,490.317 315.5,488C 336.371,465.9 346.037,439.566 344.5,409C 343.956,398.286 342.956,387.619 341.5,377C 341.833,376.167 342.167,375.333 342.5,374.5C 388.119,355.133 412.785,320.633 416.5,271C 418.118,263.149 415.118,259.482 407.5,260C 405.333,260.833 403.833,262.333 403,264.5C 402.939,303.8 386.772,334.3 354.5,356C 332.915,369.319 309.915,372.652 285.5,366C 278.812,362.992 272.812,358.992 267.5,354C 284.362,333.105 300.862,311.938 317,290.5C 322.941,281.119 326.775,270.953 328.5,260C 327.485,249.955 324.652,240.455 320,231.5C 315.581,224.328 310.915,217.328 306,210.5C 294.844,200.686 285.177,189.686 277,177.5C 273.652,167.869 274.986,158.869 281,150.5C 288.667,140.833 296.333,131.167 304,121.5C 320.114,97.3365 319.281,73.8365 301.5,51C 286.392,38.9079 269.058,33.0746 249.5,33.5C 241.578,33.7229 233.911,34.8896 226.5,37C 235.857,25.9959 247.524,19.1625 261.5,16.5 Z M 243.5,42.5 C 262.17,40.996 279.17,45.496 294.5,56C 308.753,72.7006 310.253,90.534 299,109.5C 288.247,120.916 278.247,132.916 269,145.5C 260.661,161.098 261.994,175.764 273,189.5C 285.816,200.975 297.15,213.642 307,227.5C 312.365,235.929 315.532,245.096 316.5,255C 314.597,266.307 310.097,276.473 303,285.5C 285.86,304.46 269.194,323.794 253,343.5C 249.667,348.5 249.667,353.5 253,358.5C 268.499,373.671 287.166,381.004 309,380.5C 316.664,380.639 324.164,379.639 331.5,377.5C 334.979,395.416 335.145,413.416 332,431.5C 326.811,452.897 315.811,470.563 299,484.5C 255.142,474.972 225.142,449.305 209,407.5C 206.417,399.328 203.917,391.161 201.5,383C 211.852,374.806 219.686,364.639 225,352.5C 229.755,330.756 221.255,322.089 199.5,326.5C 198.537,315.467 200.037,304.801 204,294.5C 214.161,275.508 224.828,256.841 236,238.5C 250.014,208.924 251.014,178.924 239,148.5C 232.116,134.066 225.783,119.4 220,104.5C 214.537,87.2106 214.204,69.8773 219,52.5C 226.572,47.4818 234.739,44.1485 243.5,42.5 Z M 202.5,95.5 C 204.928,103.45 207.594,111.45 210.5,119.5C 202.521,120.665 194.521,120.832 186.5,120C 192.056,111.951 197.389,103.784 202.5,95.5 Z M 138.5,265.5 C 139.124,265.917 139.457,266.584 139.5,267.5C 138.603,271.486 137.769,275.486 137,279.5C 133.919,276.707 130.419,274.54 126.5,273C 130.732,270.725 134.732,268.225 138.5,265.5 Z M 97.5,282.5 C 115.679,281.672 130.512,288.338 142,302.5C 151.125,315.036 156.625,329.036 158.5,344.5C 150.931,346.515 143.264,347.682 135.5,348C 140.896,332.838 136.229,322.171 121.5,316C 111.757,314.741 102.09,313.074 92.5,311C 82.8354,303.795 81.8354,295.295 89.5,285.5C 92.2821,284.484 94.9487,283.484 97.5,282.5 Z M 75.5,298.5 C 76.2927,310.542 82.626,318.042 94.5,321C 102.157,322.066 109.824,323.066 117.5,324C 125.34,325.672 129.34,330.505 129.5,338.5C 129.278,342.388 128.278,346.054 126.5,349.5C 122.656,350.982 118.656,351.815 114.5,352C 109.857,354.072 108.357,357.572 110,362.5C 111.779,364.764 114.113,366.097 117,366.5C 130.894,363.588 144.727,360.421 158.5,357C 176.674,350.944 194.508,344.11 212,336.5C 213.797,337.927 214.964,339.76 215.5,342C 211.045,357.467 201.711,369.134 187.5,377C 176.408,382.88 165.075,388.213 153.5,393C 140.71,396.556 127.877,399.722 115,402.5C 111.812,408.868 113.646,413.035 120.5,415C 105.358,441.574 110.024,463.907 134.5,482C 125.669,486.085 116.336,487.918 106.5,487.5C 90.789,487.097 76.1224,482.931 62.5,475C 51.5837,465.453 48.0837,453.62 52,439.5C 56.0589,429.715 60.3923,420.048 65,410.5C 66.9608,405.323 68.2942,399.99 69,394.5C 69.7236,386.481 70.557,378.481 71.5,370.5C 70.0014,351.868 69.5014,333.201 70,314.5C 70.9969,308.848 72.8302,303.515 75.5,298.5 Z M 158.5,405.5 C 159.5,405.5 160.5,405.5 161.5,405.5C 162.528,424.864 159.361,443.531 152,461.5C 149.411,467.016 146.078,472.016 142,476.5C 119.934,462.954 114.934,444.621 127,421.5C 128.793,418.705 130.96,416.205 133.5,414C 141.927,411.313 150.261,408.48 158.5,405.5 Z"/></g>
<g><path style="opacity:0.88" fill="#000000" d="M 259.5,71.5 C 262.97,70.8748 265.804,71.8748 268,74.5C 271.158,89.8945 265.158,98.8945 250,101.5C 236.286,100.457 229.619,93.1235 230,79.5C 231.599,77.9644 233.433,77.4644 235.5,78C 237.87,81.108 239.87,84.4413 241.5,88C 246.855,91.7904 251.689,91.2904 256,86.5C 255.892,82.8432 255.892,79.1765 256,75.5C 256.69,73.6498 257.856,72.3164 259.5,71.5 Z"/></g>
<g><path style="opacity:0.895" fill="#000000" d="M 135.5,168.5 C 152.031,168.198 160.031,176.365 159.5,193C 159.655,208.343 154.322,221.343 143.5,232C 141.1,233.701 138.433,234.534 135.5,234.5C 122.274,232.036 109.607,227.869 97.5,222C 87.2159,216.274 83.3826,207.774 86,196.5C 86.7922,194.413 87.9588,192.579 89.5,191C 98.2626,186.856 107.263,186.356 116.5,189.5C 119.778,179.563 126.112,172.563 135.5,168.5 Z M 136.5,181.5 C 144.175,181.35 147.508,185.183 146.5,193C 146.348,204.122 143.015,214.122 136.5,223C 135.5,223.5 134.5,224 133.5,224.5C 122.32,222.539 111.653,219.039 101.5,214C 97.9838,211.486 95.6505,208.152 94.5,204C 94.9903,202.018 95.9903,200.351 97.5,199C 106.693,197.7 115.527,198.866 124,202.5C 125.512,201.743 126.846,200.743 128,199.5C 127.382,191.741 130.215,185.741 136.5,181.5 Z"/></g>
<g><path style="opacity:0.84" fill="#000000" d="M 106.5,288.5 C 113.923,288.112 118.09,291.445 119,298.5C 117.582,300.363 115.749,300.863 113.5,300C 111.784,296.622 109.451,295.956 106.5,298C 108.347,300.579 108.847,303.412 108,306.5C 103.407,308.683 100.407,307.35 99,302.5C 97.1005,295.291 99.6005,290.624 106.5,288.5 Z"/></g>
</svg>
